Coordinates
version=1
nRows=8
nColumns=36
inDegrees=yes

Units are S.I. units (second, meters, Newtons, ...)
If the header above contains a line with 'inDegrees', this indicates whether rotational values are in degrees (yes) or radians (no).

endheader
time	pelvis_tilt	pelvis_list	pelvis_rotation	pelvis_tx	pelvis_ty	pelvis_tz	hip_flexion_r	hip_adduction_r	hip_rotation_r	knee_angle_r	knee_angle_r_beta	ankle_angle_r	subtalar_angle_r	mtp_angle_r	hip_flexion_l	hip_adduction_l	hip_rotation_l	knee_angle_l	knee_angle_l_beta	ankle_angle_l	subtalar_angle_l	mtp_angle_l	lumbar_extension	lumbar_bending	lumbar_rotation	arm_flex_r	arm_add_r	arm_rot_r	elbow_flex_r	pro_sup_r	arm_flex_l	arm_add_l	arm_rot_l	elbow_flex_l	pro_sup_l
      5.91666670	      4.06350981	     -1.43962780	      1.35026458	      1.13920950	      0.78811122	      0.42502725	     28.34657907	      1.24942711	      2.69823033	     59.36874410	      1.03618006	     28.78849833	    -14.68870498	     -7.49999987	     28.35962154	     -1.87918350	      0.94282925	     61.43690610	      1.07227629	     22.69138170	    -23.40403446	     -7.49999987	    -14.44987356	     -0.22223863	     -1.62550719	    -18.94073364	    -28.33089309	     28.74151630	     43.66113585	     76.33435358	    -14.36634160	    -15.77100878	     10.48909765	     82.11466567	     87.85386679
      5.93333330	      3.62835434	     -1.51100502	      1.28038816	      1.14798904	      0.75527306	      0.42631339	     34.45025771	      1.74773218	      2.92291304	     70.93363863	      1.23802554	     35.36504421	    -12.96685813	     -7.49999987	     33.50400751	     -1.47158573	      2.10671360	     71.63043571	      1.25018695	     29.54069429	    -24.09159692	     -7.49999987	    -16.11377409	      0.14186936	     -1.91765070	    -13.83672662	    -24.84196009	     28.84443328	     38.51921929	     76.18471170	    -10.78854088	    -13.69518303	     10.02558581	     76.15372795	     88.17971012
      5.95000000	      2.89705688	     -1.57794566	      0.94831809	      1.14163539	      0.73434113	      0.42312270	     40.33229884	      1.92970873	      3.00140251	     79.75693830	      1.39202117	     37.60053417	    -12.18188824	     -7.49999987	     37.90452086	     -0.79230683	      2.70633967	     78.82127056	      1.37569069	     34.45211821	    -23.98426172	     -7.49999987	    -18.31690408	      0.48401169	     -2.25915454	     -6.87006237	    -21.12625627	     32.49303747	     30.90172074	     74.56533551	     -5.85413170	    -11.47287827	     10.30892050	     70.45270747	     89.47546902
      5.96666670	      2.66903719	     -1.40671184	      0.80904103	      1.13605907	      0.72559781	      0.42463951	     43.67563697	      1.66109713	      2.78606370	     84.58755483	      1.47633134	     38.27316071	    -11.53668955	     -7.49999987	     40.78725440	     -0.22957861	      3.12827440	     83.29847286	      1.45383261	     36.00216186	    -24.44573908	     -7.49999987	    -21.63015115	      0.89796404	     -1.58732105	     -0.71692218	    -17.37583937	     33.53653806	     25.06645303	     73.37103321	      0.56884453	     -9.62283635	     12.10936451	     64.45439762	     88.96141422
      5.98333330	      1.49203523	     -1.23912217	      1.19042329	      1.13469259	      0.69709065	      0.42801761	     48.09977139	      1.05471022	      2.50319031	     89.05614953	      1.55432303	     38.57238454	    -10.29172074	     -7.49999987	     45.17111820	      0.06728538	      3.72287214	     87.98606078	      1.53564646	     37.55399212	    -23.41629904	     -7.49999987	    -24.30391374	      1.28128556	     -1.07379954	      4.68771933	    -15.06492834	     33.98314310	     23.78712215	     73.04274600	      5.99451530	     -8.29812742	     13.99580757	     62.90799838	     89.96127093
      6.00000000	     -0.80336458	     -1.20781245	      1.56628186	      1.12156881	      0.67130941	      0.41932042	     53.84228761	     -0.03203902	      2.78521921	     92.82589115	      1.62011743	     39.72009415	     -7.87774981	     -7.49999987	     51.29923259	      0.93537644	      4.02429211	     92.59195003	      1.61603439	     38.65356318	    -22.88602767	     -7.49999987	    -25.65802278	      2.14061492	     -0.88839962	      9.93008845	    -14.57161007	     33.31295894	     26.38777057	     71.68897853	     11.59548288	     -6.63577035	     15.90175487	     65.05054077	     87.65819277
      6.01666670	     -2.77417678	     -0.87545621	      1.96277500	      1.11664720	      0.66083304	      0.41261464	     57.70430668	     -1.44351005	      3.29612601	     94.85478975	      1.65552839	     39.96177933	     -6.20471088	     -7.49999987	     55.88857206	      2.29292133	      3.71216629	     95.37319544	      1.66457628	     38.87986691	    -23.22512088	     -7.49999987	    -26.16263933	      2.63503851	      0.06289308	     15.38011890	    -15.17498915	     32.74359149	     29.34476399	     71.49564067	     18.03118018	     -5.16116413	     19.93057161	     66.23324270	     87.34329584
      6.03333330	     -4.35444299	     -0.99285891	      2.21522903	      1.11903070	      0.65352713	      0.41261540	     59.97590647	     -2.08128933	      3.19986196	     95.52534437	      1.66723178	     40.43032823	     -5.51224979	     -7.49999987	     58.76059883	      2.65022335	      3.53857359	     96.57564072	      1.68556291	     39.02395905	    -22.97889821	     -7.49999987	    -27.08506669	      3.51184479	      1.72331206	     19.32713679	    -15.76481098	     29.03972067	     34.13405943	     74.38910952	     23.47454140	     -3.67210516	     22.65772221	     69.14825487	     89.73625932
